<?xml version="1.0" encoding="UTF-8" standalone="no"?>
<!-- Created with Inkscape (http://www.inkscape.org/) -->

<svg
   xmlns:dc="http://purl.org/dc/elements/1.1/"
   xmlns:cc="http://creativecommons.org/ns#"
   xmlns:rdf="http://www.w3.org/1999/02/22-rdf-syntax-ns#"
   xmlns:svg="http://www.w3.org/2000/svg"
   xmlns="http://www.w3.org/2000/svg"
   xmlns:xlink="http://www.w3.org/1999/xlink"
   xmlns:sodipodi="http://sodipodi.sourceforge.net/DTD/sodipodi-0.dtd"
   xmlns:inkscape="http://www.inkscape.org/namespaces/inkscape"
   width="744.09448819"
   height="1052.3622047"
   id="svg2"
   version="1.1"
   inkscape:version="0.47pre4 r22446"
   sodipodi:docname="nave.svg">
  <defs
     id="defs4">
    <linearGradient
       id="linearGradient3619">
      <stop
         style="stop-color:#e7f4f6;stop-opacity:1;"
         offset="0"
         id="stop3621" />
      <stop
         style="stop-color:#000000;stop-opacity:0.04672897;"
         offset="1"
         id="stop3623" />
    </linearGradient>
    <linearGradient
       id="linearGradient3819">
      <stop
         style="stop-color:#2e2e2e;stop-opacity:1;"
         offset="0"
         id="stop3821" />
      <stop
         style="stop-color:#6f6f6f;stop-opacity:1;"
         offset="1"
         id="stop3823" />
    </linearGradient>
    <linearGradient
       id="linearGradient3781">
      <stop
         style="stop-color:#16ffec;stop-opacity:1;"
         offset="0"
         id="stop3783" />
      <stop
         style="stop-color:#000099;stop-opacity:0.80434781;"
         offset="1"
         id="stop3785" />
    </linearGradient>
    <inkscape:path-effect
       effect="skeletal"
       id="path-effect2933"
       is_visible="true"
       pattern="M 0,5 C 0,2.24 2.24,0 5,0 7.76,0 10,2.24 10,5 10,7.76 7.76,10 5,10 2.24,10 0,7.76 0,5 z"
       copytype="single_stretched"
       prop_scale="1"
       scale_y_rel="false"
       spacing="0"
       normal_offset="0"
       tang_offset="0"
       prop_units="false"
       vertical_pattern="false"
       fuse_tolerance="0" />
    <inkscape:perspective
       sodipodi:type="inkscape:persp3d"
       inkscape:vp_x="0 : 526.18109 : 1"
       inkscape:vp_y="0 : 1000 : 0"
       inkscape:vp_z="744.09448 : 526.18109 : 1"
       inkscape:persp3d-origin="372.04724 : 350.78739 : 1"
       id="perspective10" />
    <inkscape:perspective
       id="perspective2923"
       inkscape:persp3d-origin="0.5 : 0.33333333 : 1"
       inkscape:vp_z="1 : 0.5 : 1"
       inkscape:vp_y="0 : 1000 : 0"
       inkscape:vp_x="0 : 0.5 : 1"
       sodipodi:type="inkscape:persp3d" />
    <radialGradient
       inkscape:collect="always"
       xlink:href="#linearGradient3781"
       id="radialGradient3793"
       cx="303.00165"
       cy="225.7374"
       fx="303.00165"
       fy="225.7374"
       r="160.61153"
       gradientTransform="matrix(0.73766649,0,0,1.0385399,152.10814,10.35049)"
       gradientUnits="userSpaceOnUse" />
    <linearGradient
       inkscape:collect="always"
       xlink:href="#linearGradient3819"
       id="linearGradient3829"
       x1="78.610748"
       y1="511.07092"
       x2="527.3476"
       y2="511.07092"
       gradientUnits="userSpaceOnUse" />
    <linearGradient
       inkscape:collect="always"
       xlink:href="#linearGradient3819"
       id="linearGradient3855"
       gradientUnits="userSpaceOnUse"
       x1="78.610748"
       y1="511.07092"
       x2="527.3476"
       y2="511.07092" />
    <linearGradient
       inkscape:collect="always"
       xlink:href="#linearGradient3819"
       id="linearGradient3857"
       gradientUnits="userSpaceOnUse"
       x1="78.610748"
       y1="511.07092"
       x2="527.3476"
       y2="511.07092" />
    <linearGradient
       inkscape:collect="always"
       xlink:href="#linearGradient3819"
       id="linearGradient3859"
       gradientUnits="userSpaceOnUse"
       x1="78.610748"
       y1="511.07092"
       x2="527.3476"
       y2="511.07092" />
    <linearGradient
       inkscape:collect="always"
       xlink:href="#linearGradient3819"
       id="linearGradient3861"
       gradientUnits="userSpaceOnUse"
       x1="78.610748"
       y1="511.07092"
       x2="527.3476"
       y2="511.07092" />
    <radialGradient
       inkscape:collect="always"
       xlink:href="#linearGradient3619"
       id="radialGradient3625"
       cx="385.03625"
       cy="178.651"
       fx="385.03625"
       fy="178.651"
       r="51.610882"
       gradientTransform="matrix(1,0,0,0.90615613,0,16.765301)"
       gradientUnits="userSpaceOnUse"
       spreadMethod="repeat" />
    <filter
       inkscape:collect="always"
       id="filter3671"
       x="-0.30978821"
       width="1.6195764"
       y="-0.34187068"
       height="1.6837414">
      <feGaussianBlur
         inkscape:collect="always"
         stdDeviation="13.323702"
         id="feGaussianBlur3673" />
    </filter>
    <inkscape:perspective
       id="perspective3704"
       inkscape:persp3d-origin="0.5 : 0.33333333 : 1"
       inkscape:vp_z="1 : 0.5 : 1"
       inkscape:vp_y="0 : 1000 : 0"
       inkscape:vp_x="0 : 0.5 : 1"
       sodipodi:type="inkscape:persp3d" />
    <radialGradient
       inkscape:collect="always"
       xlink:href="#linearGradient3619-7"
       id="radialGradient3625-0"
       cx="385.03625"
       cy="178.651"
       fx="385.03625"
       fy="178.651"
       r="51.610882"
       gradientTransform="matrix(1,0,0,0.90615613,0,16.765301)"
       gradientUnits="userSpaceOnUse"
       spreadMethod="repeat" />
    <linearGradient
       id="linearGradient3619-7">
      <stop
         style="stop-color:#e7f4f6;stop-opacity:1;"
         offset="0"
         id="stop3621-4" />
      <stop
         style="stop-color:#000000;stop-opacity:0.04672897;"
         offset="1"
         id="stop3623-3" />
    </linearGradient>
    <filter
       color-interpolation-filters="sRGB"
       inkscape:collect="always"
       id="filter3671-7"
       x="-0.3097882"
       width="1.6195765"
       y="-0.34187067"
       height="1.6837415">
      <feGaussianBlur
         inkscape:collect="always"
         stdDeviation="13.323702"
         id="feGaussianBlur3673-9" />
    </filter>
    <radialGradient
       r="51.610882"
       fy="178.651"
       fx="385.03625"
       cy="178.651"
       cx="385.03625"
       spreadMethod="repeat"
       gradientTransform="matrix(1,0,0,0.90615613,0,16.765301)"
       gradientUnits="userSpaceOnUse"
       id="radialGradient3715"
       xlink:href="#linearGradient3619-7"
       inkscape:collect="always" />
  </defs>
  <sodipodi:namedview
     id="base"
     pagecolor="#ffffff"
     bordercolor="#666666"
     borderopacity="1.0"
     inkscape:pageopacity="0.0"
     inkscape:pageshadow="2"
     inkscape:zoom="0.7"
     inkscape:cx="296.55314"
     inkscape:cy="637.01367"
     inkscape:document-units="px"
     inkscape:current-layer="layer1"
     showgrid="false"
     inkscape:window-width="1024"
     inkscape:window-height="722"
     inkscape:window-x="0"
     inkscape:window-y="0"
     inkscape:window-maximized="1" />
  <metadata
     id="metadata7">
    <rdf:RDF>
      <cc:Work
         rdf:about="">
        <dc:format>image/svg+xml</dc:format>
        <dc:type
           rdf:resource="http://purl.org/dc/dcmitype/StillImage" />
        <dc:title />
      </cc:Work>
    </rdf:RDF>
  </metadata>
  <g
     inkscape:label="Livello 1"
     inkscape:groupmode="layer"
     id="layer1">
    <g
       id="g2983"
       style="fill:#232222;fill-opacity:1"
       transform="matrix(0.73766649,0,0,0.7983874,152.10814,64.561885)">
      <path
         id="path2975"
         d="m -54.283207,457.90759 c -18.828213,37.17836 -31.423152,77.13229 -45.050256,116.43138 -30.665927,93.51026 -58.811567,187.88068 -82.258697,283.47028 -2.44389,4.97356 2.76992,8.11203 7.09777,8.5252 31.7234,8.18308 61.78091,22.93797 89.085858,40.80692 24.668157,15.58133 42.212527,39.1904 63.640812,58.65859 37.933854,36.53024 76.560259,72.49414 114.082901,109.27924 5.601296,0.3973 2.040862,-7.4108 2.493814,-10.6381 C 83.899752,957.18708 77.942428,849.40478 76.910355,741.60262 c 0.402717,-33.94711 -0.783242,-68.20811 3.472399,-101.89913 3.973405,-20.01793 10.550851,-39.4204 14.529034,-59.46762 3.612427,-16.6599 7.869112,-33.26712 11.008882,-49.9761 -7.304733,-23.7631 -12.00663,-48.34549 -18.252191,-72.21328 -7.229379,-2.00402 -15.928439,-0.23589 -23.700704,-0.83338 -38.890873,0 -77.781746,0 -116.672619,0 l -0.924613,0.40683 -0.65375,0.28765 z"
         style="fill:#232222;fill-opacity:1" />
      <path
         id="path2977"
         d="m 518.40773,457.90759 c -6.04164,24.36027 -11.36162,48.96985 -17.99334,73.26763 6.74106,32.81383 14.22075,65.65163 23.01254,97.82696 6.12021,33.4083 5.76062,67.73965 6.3972,101.64653 -0.29547,101.90394 -7.12243,203.68075 -15.70702,305.18379 -0.86606,12.6306 -2.95466,25.3665 -3.35043,37.9025 4.8577,3.3246 9.1173,-6.6335 13.46465,-9.0408 45.63651,-44.5967 93.75962,-87.1991 137.88951,-133.18 30.26864,-30.46993 69.9013,-49.66637 110.21399,-63.10586 5.00404,-2.26464 12.03056,-1.55604 15.84677,-5.65055 -2.23944,-16.61674 -7.79428,-32.80672 -11.67121,-49.16248 -27.15316,-101.82241 -56.6642,-203.1734 -93.32253,-302.01596 -7.05245,-18.1497 -13.97232,-36.62354 -22.94985,-53.80161 -15.17092,-1.32186 -31.14514,-0.18495 -46.6234,-0.56463 -31.48926,0.2709 -63.20652,-0.54249 -94.55312,0.40683 l -0.65376,0.28765 z"
         style="fill:#232222;fill-opacity:1" />
      <path
         id="path2979"
         d="m 572.00895,384.15757 c -4.41712,3.10975 -5.18011,9.85988 -8.22754,14.3144 -9.07999,19.36304 -24.74509,34.62883 -42.05911,46.73669 -3.2397,3.05646 -2.18909,8.47353 -2.84009,12.40518 4.15377,3.42585 11.58905,0.53074 16.98222,1.48442 39.88319,-0.37122 79.82281,0.79662 119.67151,-0.72605 5.39568,-0.24915 3.0447,-6.29475 0.82075,-8.90197 -5.03401,-7.20494 -8.94067,-16.84151 -17.2673,-20.61342 -2.22465,0.36511 -3.98804,1.39097 -5.52427,-1.10486 -13.51652,-14.23904 -28.90842,-26.28882 -45.85249,-36.09713 -5.06474,-2.54681 -9.93271,-6.91203 -15.70368,-7.49726 z"
         style="fill:#232222;fill-opacity:1" />
      <path
         id="path2981"
         d="m 32.429657,383.43152 c -21.191604,12.0019 -42.2400804,25.25251 -58.90452,43.21559 -1.573749,1.6775 -2.423686,5.4669 -4.829792,2.49381 -6.817402,-0.50514 -10.181926,7.42766 -13.798139,12.02859 -3.013227,5.39434 -7.193973,10.56779 -8.74089,16.50822 4.974991,3.19349 12.286171,0.56257 18.182746,1.42053 40.4435025,-0.17571 81.078107,0.41453 121.407709,-0.50508 3.877157,-2.29378 0.475398,-8.02595 -0.284106,-11.64832 C 81.564578,441.0749 74.01295,438.93888 69.467698,433.51275 57.901876,423.35304 47.954368,411.37376 41.727389,397.14607 38.466256,393.25374 37.938457,383.77064 32.429657,383.43152 z"
         style="fill:#232222;fill-opacity:1" />
    </g>
    <path
       style="fill:#560900;fill-opacity:1"
       d="m 281.56983,436.47542 c -1.74366,1.82473 -0.089,5.39196 -0.0988,7.82349 2.48975,14.42595 7.72268,28.37922 15.3461,40.48965 6.27104,8.90665 14.2158,17.6048 24.81547,19.66664 13.59284,3.23164 27.352,6.34347 41.27812,7.13637 19.11159,0.27015 38.4313,-0.0282 57.11842,-4.84523 8.71863,-1.87567 17.98927,-3.68528 24.79387,-10.38015 13.39289,-12.59541 20.72337,-31.19138 24.52245,-49.59013 0.26697,-3.23399 1.86573,-7.07229 0.26345,-10.06896 -2.27202,-0.83766 -4.46809,1.79736 -6.75612,2.14304 -12.62734,4.14927 -26.16754,4.24711 -39.32999,5.02012 -14.08017,0.51507 -28.16919,0.18206 -42.25275,0.0723 -1.70626,-2.96958 -5.83363,-5.02483 -8.37322,-2.03224 -4.0641,3.30189 -9.62829,1.54771 -14.34953,2.15698 -21.70886,0.0661 -43.68952,0.53818 -65.0892,-3.74243 -3.93819,-0.79705 -7.69254,-2.67701 -11.47663,-3.9563 l -0.41165,0.10693 z"
       id="path2945" />
    <path
       style="fill:url(#radialGradient3793);fill-opacity:1"
       d="m 367.32813,78.137086 c -20.92143,12.26708 -40.54326,27.169164 -56.91126,45.970104 -30.42046,32.43089 -50.37998,76.83297 -52.91698,123.18787 -1.74203,34.54989 3.25944,68.95522 7.64812,103.07944 3.18601,18.86655 4.87719,38.50976 12.34229,56.05567 0.9107,2.98203 3.45644,4.34883 6.19387,3.48278 38.74,-0.30945 77.45096,2.68331 116.19729,1.31699 22.87956,-0.15213 45.90494,-2.55609 68.6947,-1.5486 1.49006,0.83397 3.46404,1.02987 4.33121,-1.08372 6.69409,-14.47583 8.76028,-30.96458 11.6406,-46.76405 5.62774,-37.17442 10.33484,-74.79752 9.44305,-112.54101 -2.21618,-43.92335 -19.53695,-86.28861 -47.1123,-118.39583 -16.31175,-20.21098 -36.29232,-36.413694 -57.75639,-49.647984 -5.45985,-4.42164 -12.84897,-1.95265 -19.20093,-3.14936 -0.85514,0.0563 -1.76869,-0.30767 -2.59327,0.0377 z"
       id="path2953" />
    <g
       id="g2969"
       style="fill:url(#linearGradient3829);fill-opacity:1"
       transform="matrix(0.73766649,0,0,0.7983874,152.10814,64.561885)">
      <path
         id="path2961"
         d="m 451.36196,154.39153 c -1.12844,6.09465 3.12217,12.27622 4.06601,18.34633 11.1418,34.77725 13.1302,71.80537 9.63479,108.06827 -4.38204,44.32569 -9.41906,88.82973 -20.23523,132.02662 -2.8105,8.35863 -4.18284,19.77025 -12.7216,24.08582 -13.96579,-4.51981 -29.08026,-1.42426 -43.49841,-1.69551 -55.2749,2.57959 -110.63336,2.55289 -165.91277,0.11414 -14.71792,0.13289 -29.72934,-2.27123 -44.29495,0.16084 -2.85453,1.72125 -6.45315,1.98265 -8.20749,-1.29425 -9.53069,-14.93216 -11.5432,-33.44017 -15.42904,-50.53632 -7.52198,-44.54532 -14.29453,-89.53834 -15.28591,-134.82668 -0.73062,-31.45933 6.36104,-62.2962 15.9099,-91.98701 -0.14055,-5.30649 -5.93147,-1.5995 -7.4794,0.86227 -29.99581,30.87658 -45.34256,72.20681 -59.882439,111.9163 -7.355697,17.0102 -6.882716,35.79498 -8.809974,53.8966 -2.093292,42.50392 1.289856,85.20143 9.501747,126.86884 13.439696,71.64284 37.491886,140.76879 65.154836,208.02829 5.39172,3.02405 12.90946,0.49425 19.12977,1.32583 13.48454,-0.45637 27.35435,0.91944 40.5955,-0.69448 0.39457,-5.91177 -5.81557,-10.86517 -8.08254,-16.37279 -6.83852,-11.66515 -14.29382,-23.08263 -19.88606,-35.39753 9.37223,5.92565 16.12589,15.42494 23.81823,23.4584 8.35696,9.13603 15.40688,19.54498 23.4958,28.62388 16.86312,0.89197 34.10423,0.12756 51.11271,0.38252 4.46731,-3.02791 0.41564,-10.2705 1.07033,-15.15013 -1.33318,-13.28396 -0.28718,-28.041 9.78881,-37.88288 5.39246,-7.02246 16.19191,-2.60807 19.69798,4.19845 10.08035,13.45629 6.42101,31.03579 5.27173,46.53015 3.27084,4.92067 11.8544,1.09499 17.2673,2.30441 12.03002,-0.29973 24.34337,0.6007 36.19571,-0.45175 14.31681,-17.58661 28.21188,-36.49352 45.65821,-51.35014 2.86839,-2.28486 -0.3299,3.13067 -0.69448,4.13532 -8.15182,15.46505 -18.26365,30.05029 -26.21768,45.48225 3.0157,4.70952 11.78074,1.00723 17.09474,2.18432 14.20001,-0.45667 28.78524,0.91862 42.74208,-0.69448 35.09946,-85.85143 65.21553,-175.17281 73.7727,-268.03766 2.9547,-34.95748 1.83733,-70.28724 -2.62008,-105.05587 -7.8059,-27.03539 -18.48381,-53.27984 -30.74652,-78.57093 -9.93613,-19.44812 -21.74971,-39.03555 -38.29109,-53.28554 -0.927,-0.92574 -1.78732,-0.0192 -2.68322,0.2841 z m -19.88738,307.30735 c 2.77072,1.33889 1.07814,6.27196 1.57836,8.7757 -1.41747,28.57438 -15.30344,56.70848 -37.50191,75.00382 -15.47318,9.68328 -34.7051,11.78557 -52.59107,14.48938 -30.31166,3.1287 -61.31855,4.18537 -91.31039,-1.75301 -16.87472,-3.68124 -35.96104,-5.25267 -48.12223,-19.04982 -18.64718,-18.89551 -29.86779,-45.18023 -30.68338,-71.6577 0.0631,-2.39424 0.49097,-7.84989 4.26158,-4.98762 20.6002,10.05831 44.25359,8.64311 66.6065,9.94164 17.17229,0.0687 34.54867,1.47084 51.61292,-0.50303 4.26757,-1.23641 7.76806,-5.92611 11.89183,-1.50646 7.83021,5.88686 17.94696,1.92222 26.92939,2.69793 27.03093,-1.24142 54.53656,0.12079 81.13439,-5.38992 5.7831,-1.04053 10.58042,-4.78224 16.19401,-6.06091 z"
         style="fill:url(#linearGradient3855);fill-opacity:1" />
      <path
         id="path2963"
         d="m 185.78654,658.36832 c -9.46825,0.20244 -18.95574,0.13417 -28.41054,0.63134 -4.13264,2.87018 1.39175,7.94368 1.91591,11.56546 15.67773,37.26499 34.16897,73.27501 53.54778,108.70583 6.32407,16.27478 4.45392,34.40005 6.75539,51.48621 1.50815,10.98175 1.06214,25.86217 12.65848,31.5357 18.13262,9.50275 39.2991,5.01019 58.87157,5.5424 23.60631,-0.94505 47.42142,1.98392 70.90146,-1.05984 9.85728,-1.94934 21.08213,-7.91331 22.12866,-19.0982 4.57178,-21.80104 2.12184,-44.72516 8.17592,-66.16499 6.64533,-14.60523 15.84403,-27.96254 22.45222,-42.63639 12.70408,-25.96893 25.6813,-52.11661 36.24453,-78.89742 -3.45783,-4.31429 -11.74013,-0.83883 -17.09109,-1.95734 -14.15371,0.32688 -28.64021,-0.65476 -42.58776,0.48262 -9.41183,12.70204 -17.44183,26.80835 -27.1772,39.46472 -15.8679,20.81311 -32.07765,42.47676 -53.66306,57.81649 -3.5801,2.63025 -8.43504,4.90075 -12.31123,1.51522 -21.29952,-13.18532 -36.49778,-34.02345 -51.79564,-53.56637 -11.39893,-14.56634 -20.8748,-30.64876 -31.89921,-45.2677 -9.25597,-1.04109 -19.25857,0.11904 -28.71619,-0.0977 z"
         style="fill:url(#linearGradient3857);fill-opacity:1" />
      <path
         id="path2965"
         d="m 235.31558,657.92638 c -4.64145,3.12773 2.39946,7.93724 3.59216,11.41462 10.88675,16.04758 23.82826,31.24818 39.81283,42.50227 3.05056,1.47251 9.05867,6.21125 10.60661,0.72605 1.64573,-17.26896 -0.80545,-34.68233 -2.58852,-51.86502 -3.98513,-4.16342 -11.73752,-1.00366 -17.20005,-2.21521 -11.40587,-0.21323 -22.81551,-0.67437 -34.22303,-0.56271 z"
         style="fill:url(#linearGradient3859);fill-opacity:1" />
      <path
         id="path2967"
         d="m 319.85272,658.71556 c -2.72944,17.50679 -3.76257,35.56409 -3.69337,53.34868 1.17553,5.9026 8.68347,2.17369 11.52206,-0.2841 18.65752,-13.15136 33.16283,-31.41755 45.04649,-50.7286 -1.00038,-5.25336 -8.5326,-1.81323 -12.27956,-2.96188 -13.28714,0.15046 -26.79867,-0.59536 -39.94186,0.33825 l -0.65376,0.28765 z"
         style="fill:url(#linearGradient3861);fill-opacity:1" />
    </g>
    <g
       id="g2993"
       style="fill:#370e0e;fill-opacity:1"
       transform="matrix(0.73766649,0,0,0.7983874,152.10814,64.561885)">
      <path
         id="path2989"
         d="m 77.223609,282.49794 c -15.348599,4.64425 -24.861852,19.04217 -34.475711,30.89327 -18.80955,25.43027 -32.416266,54.17575 -46.2417911,82.52792 -2.3944709,3.77239 2.92334079,5.68659 5.3348682,2.96732 11.3312509,-6.04767 21.7092809,-15.28837 34.6608589,-17.23572 3.683583,4.63174 4.721842,11.56845 8.018086,16.73065 8.857113,15.77514 20.285113,31.14439 35.955117,40.56394 5.386579,0.082 2.019779,-7.50271 2.26846,-10.8781 -5.855875,-40.91061 -7.930867,-82.45829 -3.562718,-123.63003 0.315508,-6.87447 1.803788,-13.91691 0.915451,-20.73969 -0.737952,-0.92301 -1.695232,-1.45259 -2.872621,-1.19956 z"
         style="fill:#370e0e;fill-opacity:1" />
      <path
         id="path2991"
         d="m 526.77306,282.46637 c -3.09223,4.48944 0.19287,10.88388 -0.18259,16.06263 2.61065,30.75085 1.94316,61.7098 1.16117,92.52877 -0.90822,16.1715 -4.49033,32.40395 -5.6821,48.29792 4.51516,1.85759 8.41849,-4.19147 12.23346,-6.36213 15.49334,-13.57901 27.21299,-31.29195 34.29669,-50.52208 3.15308,-3.10139 7.68445,1.69099 11.01697,2.39911 10.24553,4.43062 19.14372,11.74451 29.23129,16.13087 4.98237,-2.40244 -1.22063,-7.96953 -1.98873,-11.45892 -18.29106,-35.12359 -35.16589,-72.47914 -64.4314,-99.88111 -4.33567,-3.578 -9.79719,-7.59787 -15.65476,-7.19506 z"
         style="fill:#370e0e;fill-opacity:1" />
    </g>
    <path
       style="fill:#370e0e;fill-opacity:1"
       d="m 375.29929,544.47608 c -3.09224,1.29578 -4.98104,4.66492 -7.11657,7.23735 -4.11165,5.20486 -5.85231,12.06708 -5.4477,18.79148 0.73729,16.51807 3.41073,32.91938 3.90222,49.44289 0.0314,5.26445 0.67577,10.77026 -0.60588,15.85268 -1.21681,2.39904 -4.34894,0.88531 -6.09481,0.11479 -8.88169,-4.84584 -15.92113,-12.84929 -22.69365,-20.54438 -9.63996,-11.5025 -16.245,-25.46115 -25.69358,-37.1758 -3.75545,-4.67872 -7.13952,-9.79963 -11.42328,-13.9518 -1.98101,-1.16068 -3.28678,1.90313 -1.87994,3.35404 12.54678,22.9419 26.6228,44.94654 41.68177,66.0989 8.97601,12.42004 19.23006,23.872 30.94102,33.38741 1.9315,1.25483 4.46393,3.7587 6.70547,1.75993 14.3007,-9.33073 24.98453,-23.53975 35.2996,-37.37912 14.42422,-19.90967 27.2321,-41.10576 39.41865,-62.63008 1.06404,-1.61841 2.21751,-4.4288 -0.40713,-4.88441 -2.64953,0.96968 -3.95703,4.142 -5.94701,6.10152 -9.15338,11.12617 -16.97141,23.38123 -24.74253,35.62636 -5.77667,9.15498 -13.49573,16.60444 -21.0624,24.01395 -3.79444,3.14932 -7.94092,6.74522 -12.82425,7.3585 -2.51391,0.26024 -2.70126,-3.15639 -2.78534,-5.04883 -0.76724,-20.30122 2.82854,-40.47934 3.91092,-60.71852 0.39582,-6.46872 -0.78288,-13.23348 -4.61423,-18.40535 -2.18658,-2.95485 -4.25963,-6.2981 -7.32394,-8.27396 -0.38515,-0.12959 -0.79418,-0.22584 -1.19741,-0.12755 z"
       id="path3853" />
    <path
       style="fill:#000000"
       d="m 223.06772,931.92184 c -1.66745,-4.21069 -44.45933,-49.28734 -89.42141,-94.19596 -6.91669,-6.90846 -13.67334,-14.21496 -15.0148,-16.23666 C 109.68062,807.99935 88.473187,789.95535 67.669961,778.12935 50.55182,768.39823 28.627018,759.31898 19.577721,758.21392 l -4.630703,-0.56548 0.107041,-3.58008 c 0.278225,-9.30503 19.670733,-87.00182 39.281529,-157.38283 10.438006,-37.46091 19.895061,-69.22211 28.493129,-95.6933 22.111433,-68.07526 35.794613,-97.40327 45.444153,-97.40327 0.97024,0 2.16096,-0.68785 2.64606,-1.52855 0.48509,-0.8407 3.30314,-3.78389 6.2623,-6.5404 4.93444,-4.59654 5.61166,-5.61117 8.17201,-12.24364 10.54311,-27.3115 29.37719,-62.76448 42.15985,-79.36111 8.03074,-10.42687 13.34695,-14.67022 20.65025,-16.48283 l 3.63603,-0.90243 1.97687,-6.3395 c 9.38406,-30.0931 22.64383,-60.41244 33.80498,-77.29728 7.28742,-11.02458 17.70764,-22.04683 20.85307,-22.05787 0.55422,-0.002 2.9467,-4.14911 5.31662,-9.21591 16.43913,-35.14621 44.85413,-66.84609 80.01007,-89.259514 8.60071,-5.48333 10.45824,-6.35115 15.11758,-7.06289 8.01844,-1.22485 18.61218,-0.45367 20.6477,1.50306 0.89687,0.86215 5.28194,3.87549 9.74461,6.6963 33.0904,20.916134 62.19322,53.665794 78.31009,88.123044 2.36991,5.0668 4.7624,9.21396 5.31662,9.21591 3.14542,0.011 13.56565,11.03329 20.85307,22.05787 11.16117,16.88484 24.42094,47.20418 33.80495,77.29728 l 1.97686,6.3395 3.63604,0.90243 c 7.30334,1.81261 12.61956,6.05596 20.65031,16.48283 12.78265,16.59663 31.61668,52.04961 42.15985,79.36111 2.5603,6.63247 3.23755,7.6471 8.17194,12.24364 2.95922,2.75651 5.77727,5.6997 6.26235,6.5404 0.48509,0.8407 1.67583,1.52855 2.64608,1.52855 9.64949,0 23.3327,29.32801 45.4441,97.40327 8.59808,26.47119 18.05512,58.23239 28.49318,95.6933 19.61079,70.38101 39.0033,148.0778 39.28147,157.38283 l 0.10704,3.58008 -4.6307,0.56548 c -9.04925,1.10506 -30.9741,10.18431 -48.09217,19.91543 -20.8033,11.826 -42.01069,29.87 -50.96162,43.35987 -1.34144,2.0217 -8.0981,9.3282 -15.01475,16.23666 -44.96211,44.90862 -87.75399,89.98527 -89.42141,94.19596 -0.67438,1.70277 -1.53929,2.59477 -2.51618,2.59477 -1.86394,0 -2.68393,-2.13673 -1.56445,-4.07688 3.24278,-5.61994 11.34192,-118.03003 15.00753,-208.29419 1.27315,-31.35064 1.2685,-112.45991 -0.008,-128.54037 -1.29019,-16.26077 -3.16467,-27.93838 -5.51082,-34.33066 -1.04755,-2.85424 -4.44259,-17.76413 -7.54448,-33.13307 -3.10196,-15.36897 -5.769,-28.08481 -5.92686,-28.25744 -0.15786,-0.17263 -0.44112,0.18665 -0.62945,0.79839 -0.18833,0.61174 -2.98024,9.73484 -6.20429,20.27355 -9.81337,32.07755 -22.46102,66.95404 -35.90149,99.00004 -7.80949,18.6201 -24.38538,54.14738 -29.88428,64.05128 -5.39578,9.71819 -6.22591,13.69251 -6.96632,33.35199 -0.88538,23.5087 -2.83465,33.46673 -7.40033,37.80544 -5.62316,5.34361 -15.7109,7.65801 -33.20642,7.61848 -15.94588,-0.036 -32.7401,-0.036 -48.68599,0 -17.49552,0.0395 -27.58324,-2.27487 -33.20641,-7.61848 -4.56568,-4.33871 -6.51495,-14.29674 -7.40033,-37.80544 -0.74042,-19.65948 -1.57055,-23.6338 -6.96633,-33.35199 -5.4989,-9.9039 -22.07479,-45.43118 -29.88428,-64.05128 -13.44046,-32.046 -26.08812,-66.92249 -35.90145,-99.00004 -3.22407,-10.53871 -6.01602,-19.66181 -6.20433,-20.27355 -0.18833,-0.61174 -0.47156,-0.97102 -0.62942,-0.79839 -0.15786,0.17263 -2.82496,12.88847 -5.92686,28.25744 -3.1019,15.36894 -6.49694,30.27883 -7.54452,33.13307 -2.34613,6.39228 -4.22063,18.06989 -5.51082,34.33066 -1.27588,16.08046 -1.28056,97.18973 -0.008,128.54037 3.66562,90.26416 11.76476,202.67425 15.00759,208.29419 1.11945,1.94015 0.29946,4.07688 -1.56451,4.07688 -0.97687,0 -1.8418,-0.892 -2.51613,-2.59477 z m -2.32617,-18.99144 c -6.48894,-61.32267 -12.56663,-173.53861 -13.38152,-247.07118 -0.69044,-62.30176 1.52293,-95.96208 7.19233,-109.37907 0.7422,-1.75645 3.21668,-12.53468 5.49886,-23.95162 2.28218,-11.41695 5.26329,-25.98716 6.62469,-32.37826 l 2.47528,-11.62019 -1.83765,-6.74272 c -2.91808,-10.70704 -8.74061,-36.8242 -11.04302,-49.53396 l -2.11119,-11.65412 -4.41722,-2.71685 c -5.65208,-3.47635 -16.73899,-15.38809 -21.36816,-22.95787 -3.13744,-5.13045 -8.4638,-16.06032 -10.47119,-21.48727 l -0.66911,-1.80892 -5.69652,3.1543 c -5.91218,3.27371 -20.92876,14.03434 -25.95825,18.60126 -6.29405,5.71518 -12.43978,12.31626 -13.47017,14.46823 -1.04782,2.18836 -1.13566,2.21815 -2.52572,0.85663 -1.37964,-1.35134 -1.52459,-1.343 -3.45074,0.19898 -9.46194,7.57468 -25.93535,48.26309 -46.494356,114.83849 -20.067119,64.9826 -48.401935,170.39792 -58.691176,218.3515 l -2.482348,11.56916 4.434313,0.97898 c 14.599273,3.22311 42.062946,16.03039 59.404215,27.70226 15.491272,10.4267 29.123812,22.91297 37.883302,34.69795 2.41157,3.2445 9.26285,10.77884 15.22506,16.74296 31.80341,31.81356 82.36811,84.01684 84.82541,87.57418 0.69133,1.00069 1.32465,1.75147 1.40736,1.66839 0.0827,-0.0828 -0.3234,-4.62859 -0.90248,-10.10124 z m 338.60331,-21.46627 c 23.31668,-24.12209 38.67172,-39.77672 56.57577,-57.67936 5.9622,-5.96175 12.81349,-13.49416 15.22508,-16.73866 8.75941,-11.78498 22.392,-24.27125 37.8833,-34.69795 17.34121,-11.67187 44.8049,-24.47915 59.4042,-27.70226 l 4.43427,-0.97898 -2.48232,-11.56916 c -5.61682,-26.17753 -22.2824,-91.5099 -34.92586,-136.91598 -23.68124,-85.04615 -42.51489,-142.73615 -56.82053,-174.04845 -5.88657,-12.88471 -9.74796,-19.27062 -13.43917,-22.22556 -1.92613,-1.54198 -2.07108,-1.55032 -3.45074,-0.19898 -1.39006,1.36152 -1.47791,1.33173 -2.52569,-0.85663 -1.03038,-2.15197 -7.1761,-8.75305 -13.47016,-14.46823 -5.02949,-4.56692 -20.04609,-15.32755 -25.95826,-18.60126 l -5.69656,-3.1543 -0.66907,1.80892 c -2.0074,5.42695 -7.33373,16.35682 -10.47117,21.48727 -4.62922,7.56978 -15.71613,19.48152 -21.36821,22.95787 l -4.41721,2.71685 -2.11121,11.65412 c -2.30241,12.70976 -8.12488,38.82692 -11.04301,49.53396 l -1.8376,6.74272 2.47524,11.62019 c 1.36144,6.3911 4.34249,20.96131 6.62468,32.37826 2.28219,11.41694 4.7567,22.19517 5.49886,23.95162 9.58509,22.68365 9.88902,126.79034 0.78208,267.85898 -2.59659,40.22149 -6.52422,88.57539 -7.83542,96.46288 l -0.44091,2.65234 3.96481,-4.54782 c 2.18069,-2.50129 13.92331,-14.85037 26.09481,-27.4424 z M 370.02981,755.95593 c 0.6519,-1.00827 10.67604,-0.92476 11.32604,0.0943 0.33599,0.5268 6.33662,0.81428 16.59749,0.79517 17.6975,-0.033 23.06847,-0.92037 29.8895,-4.93843 6.34892,-3.73995 7.61654,-8.74966 9.04576,-35.7494 1.1737,-22.17252 2.09294,-27.42764 5.88377,-33.6363 8.99327,-14.72933 29.58391,-60.70979 44.14302,-98.57474 37.51557,-97.56948 56.60689,-189.6856 52.96968,-255.58001 -0.46738,-8.46701 -1.32027,-18.9809 -1.89529,-23.36418 -0.64331,-4.90359 -0.77764,-8.14876 -0.34928,-8.43533 0.87281,-0.58379 -4.5351,-18.41274 -10.88597,-35.88945 -11.71687,-32.24335 -24.30933,-55.83514 -36.89912,-69.13004 -2.67874,-2.82876 -4.96569,-5.04011 -5.08211,-4.91411 -0.11642,0.12602 1.41586,5.45053 3.40509,11.83225 6.43526,20.64527 9.57189,42.06075 9.57073,65.34452 -6.7e-4,13.50955 -0.5336,20.9802 -3.3647,47.16579 -4.32136,39.96942 -9.20878,70.88579 -13.69413,86.62504 -2.64018,9.26444 -3.78759,11.94855 -6.39927,14.96975 -2.19108,2.53465 -3.86099,2.74081 -6.82921,0.84311 -1.98989,-1.27221 -4.05343,-1.26487 -34.78414,0.12393 -47.84901,2.16243 -61.49851,2.1946 -106.25637,0.25049 -38.21172,-1.65976 -40.50803,-1.68073 -42.52965,-0.38823 -2.99004,1.91165 -4.65568,1.71002 -6.8508,-0.8293 -2.61169,-3.0212 -3.75909,-5.70531 -6.39927,-14.96975 -4.48536,-15.73925 -9.37278,-46.65562 -13.69413,-86.62504 -2.83109,-26.18559 -3.36404,-33.65624 -3.3647,-47.16579 -0.002,-23.28377 3.13548,-44.69925 9.57074,-65.34452 1.98922,-6.38172 3.5215,-11.70623 3.40508,-11.83225 -0.11642,-0.126 -2.40337,2.08535 -5.08211,4.91411 -12.5898,13.2949 -25.18225,36.88669 -36.89915,69.13004 -6.35085,17.47671 -11.75872,35.30566 -10.88597,35.88945 0.42843,0.28657 0.29407,3.53174 -0.34925,8.43533 -9.95214,75.85981 11.76617,183.71756 61.39322,304.89178 11.05724,26.99845 27.43133,62.15682 33.82419,72.62715 3.79082,6.20866 4.71007,11.46378 5.88377,33.6363 1.42556,26.93066 2.70673,32.02596 8.97475,35.6935 7.28534,4.26279 14.64082,5.40965 32.59612,5.08238 7.44877,-0.13577 13.75582,-0.57568 14.01567,-0.97758 z m 0.24625,-86.26758 c -14.93921,-9.56514 -37.99114,-40.07375 -63.21841,-83.66787 -8.52349,-14.72906 -19.54286,-35.50987 -19.54286,-36.85479 0,-0.59036 0.77827,-1.0686 1.73899,-1.0686 1.2222,0 3.58077,2.07606 7.9365,6.98588 13.5165,15.23599 24.53893,30.16599 32.44816,43.95136 5.76519,10.04842 13.56003,19.94957 21.14799,26.86252 6.35154,5.78651 12.2674,9.61343 13.54251,8.76049 1.36371,-0.9122 0.28496,-25.03241 -1.94314,-43.44734 -2.48616,-20.5476 -2.3221,-27.06627 0.86495,-34.3669 2.33109,-5.33985 6.62701,-10.78813 9.36452,-11.87647 5.27791,-2.09834 11.47089,2.65391 15.47699,11.87647 3.17416,7.30733 3.33663,13.84683 0.85382,34.3669 -2.22811,18.41493 -3.30687,42.53514 -1.94315,43.44734 1.27511,0.85294 7.19096,-2.97398 13.5425,-8.76049 7.58796,-6.91295 15.38282,-16.8141 21.148,-26.86252 7.90923,-13.78537 18.93167,-28.71537 32.44817,-43.95136 4.35572,-4.90982 6.71428,-6.98588 7.93648,-6.98588 0.96072,0 1.739,0.47824 1.739,1.0686 0,1.34492 -11.01936,22.12573 -19.54285,36.85479 -25.22728,43.59412 -48.27921,74.10273 -63.21843,83.66787 -2.54024,1.62644 -4.96569,2.95716 -5.38986,2.95716 -0.42419,0 -2.84963,-1.33072 -5.38988,-2.95716 z m 11.2912,-5.32908 c 8.76218,-6.37039 22.74234,-23.02502 36.27093,-43.20973 9.99878,-14.91824 25.65629,-40.97659 32.62107,-54.29036 l 1.67064,-3.19355 -3.43958,3.99194 c -5.08394,5.90038 -15.48378,20.01097 -19.12399,25.9476 -1.75015,2.85423 -5.092,8.36693 -7.42631,12.25044 -5.11751,8.51381 -15.49311,20.45798 -23.30718,26.83074 -8.38357,6.8372 -13.2444,8.12117 -15.26342,4.03174 -1.53998,-3.11914 -0.67402,-26.73817 1.68312,-45.90728 2.39419,-19.47033 2.26236,-26.01669 -0.65113,-32.33469 -2.03407,-4.41097 -7.44333,-11.17743 -8.93547,-11.17743 -1.49216,0 -6.90141,6.76646 -8.93549,11.17743 -2.91348,6.318 -3.04532,12.86436 -0.65113,32.33469 2.35714,19.16911 3.2231,42.78814 1.68313,45.90728 -2.01902,4.08943 -6.87985,2.80546 -15.26343,-4.03174 -7.81407,-6.37276 -18.18967,-18.31693 -23.30718,-26.83074 -2.33431,-3.88351 -5.67615,-9.39621 -7.42631,-12.25044 -3.64021,-5.93663 -14.04005,-20.04722 -19.12399,-25.9476 l -3.43956,-3.99194 1.67063,3.19355 c 10.90995,20.85528 31.186,53.25839 44.46316,71.05648 11.27786,15.11805 28.42006,31.79237 31.00907,30.16275 0.43804,-0.27571 2.78813,-1.94933 5.22242,-3.71914 z M 360.9126,514.8159 c -19.26158,-1.63666 -41.20908,-6.26651 -48.90451,-10.31646 -13.93871,-7.33566 -26.27769,-26.90638 -31.84602,-50.51056 -2.02475,-8.58293 -2.61642,-17.45955 -1.3367,-20.05412 1.34493,-2.72681 2.92864,-2.85096 6.24095,-0.48924 6.94972,4.95523 21.15746,6.80893 56.86469,7.41918 23.39613,0.39986 27.68172,0.29726 28.76899,-0.68873 4.17899,-3.7897 4.81409,-3.88298 8.68456,-1.27564 l 3.60847,2.43084 26.94961,-0.46959 c 35.14798,-0.61243 49.41559,-2.49106 56.32291,-7.41606 5.25121,-3.7442 7.46561,-1.0468 6.81902,8.30635 -1.70395,24.64839 -16.61445,53.02038 -32.74083,62.3 -5.20454,2.99485 -21.51017,7.14551 -36.64648,9.3285 -8.04426,1.16016 -35.27337,2.07376 -42.78466,1.43553 z m 42.41583,-5.43684 c 10.11056,-1.55173 27.11343,-5.38797 31.62403,-7.13508 8.89218,-3.44428 18.38261,-14.11895 24.96638,-28.08176 5.58415,-11.84282 9.79957,-26.88926 9.79957,-34.97841 l 0,-2.79507 -3.61879,1.96723 c -7.9974,4.34752 -31.18259,6.74913 -65.15602,6.74913 -16.18702,0 -20.48284,-0.21505 -20.48284,-1.02544 0,-0.56399 -0.98956,-1.6581 -2.19901,-2.43136 -2.40818,-1.53964 -3.76782,-1.14937 -6.22232,1.78609 -1.35335,1.61853 -2.0333,1.67071 -21.76549,1.67071 -33.85774,0 -57.05421,-2.407 -65.04169,-6.74913 l -3.6188,-1.96723 0,2.79507 c 0,8.08915 4.21543,23.13559 9.79957,34.97841 6.58377,13.96281 16.0742,24.63748 24.9664,28.08176 7.25745,2.81107 31.94043,7.6491 43.79552,8.58421 8.56002,0.6752 35.12449,-0.21686 43.15349,-1.44913 z M 213.01047,413.95941 c 0,-0.44385 -0.48926,-4.12641 -1.08724,-8.18348 -4.79123,-32.50653 -5.81323,-66.87011 -2.8194,-94.7999 0.63544,-5.92803 1.214,-12.85776 1.28569,-15.3994 l 0.13036,-4.62118 -2.25862,0.5258 c -4.11469,0.95788 -6.61885,2.87579 -13.34813,10.22321 -11.33435,12.37551 -22.81907,31.82932 -37.25858,63.11183 -4.85158,10.51072 -8.82107,19.39672 -8.82107,19.74667 0,0.34995 3.56847,-1.91984 7.92993,-5.04397 8.65642,-6.20065 18.77848,-11.86453 21.16888,-11.84523 2.29336,0.0186 3.51968,1.17316 3.75973,3.53995 0.1192,1.17534 1.41197,4.86098 2.87282,8.19029 5.25411,11.97439 13.53358,23.53783 22.15594,30.94391 5.18605,4.45447 6.28969,5.08819 6.28969,3.6115 z m 331.60061,-3.6115 c 8.62236,-7.40608 16.90185,-18.96952 22.15596,-30.94391 1.46087,-3.32931 2.75364,-7.01495 2.87283,-8.19029 0.24005,-2.36679 1.46635,-3.52144 3.75967,-3.53995 2.39042,-0.0194 12.51253,5.64458 21.1689,11.84523 4.36145,3.12413 7.92991,5.39392 7.92991,5.04397 0,-0.34995 -3.96945,-9.23595 -8.82101,-19.74667 -14.43953,-31.28251 -25.92426,-50.73632 -37.25858,-63.11183 -6.72929,-7.34742 -9.23345,-9.26533 -13.34815,-10.22321 l -2.25866,-0.5258 0.13042,4.62118 c 0.0715,2.54164 0.65026,9.47137 1.28568,15.3994 2.99382,27.92979 1.97186,62.29337 -2.81943,94.7999 -1.25655,8.52521 -1.28318,8.99045 -0.51445,8.99045 0.31505,0 2.88767,-1.98831 5.71691,-4.41847 z m -113.98899,-0.7217 c 33.2379,-1.63905 38.31003,-1.62409 39.48594,0.11645 0.83214,1.2317 1.07209,1.09675 2.4845,-1.39718 6.82097,-12.04393 14.04513,-54.00195 19.9619,-115.93888 4.0572,-42.47078 -0.40606,-76.79571 -14.31566,-110.09561 -15.53272,-37.18567 -45.28157,-72.46662 -79.36879,-94.128214 -4.45414,-2.83049 -9.33952,-6.04454 -10.8564,-7.14231 -2.58898,-1.87366 -3.32304,-1.9923 -11.97881,-1.93601 l -9.22083,0.06 -7.00783,4.23392 c -51.55179,31.146054 -87.52498,81.363694 -98.46797,137.458694 -5.58819,28.64568 -5.42913,49.94205 0.76847,102.8932 5.43213,46.41106 10.97584,74.60676 16.63272,84.59526 1.41241,2.49393 1.65237,2.62887 2.48451,1.39718 1.18082,-1.74781 7.60171,-1.72519 46.12494,0.16247 33.00971,1.6175 66.65899,1.52663 103.27331,-0.27893 z"
       id="path2929" />
    <path
       sodipodi:type="arc"
       style="opacity:0.66666667;fill:url(#radialGradient3625);fill-opacity:1;fill-rule:nonzero;stroke:none;filter:url(#filter3671)"
       id="path2843"
       sodipodi:cx="385.03625"
       sodipodi:cy="178.651"
       sodipodi:rx="51.610882"
       sodipodi:ry="46.767517"
       d="m 436.64714,178.651 a 51.610882,46.767517 0 1 1 -103.22177,0 51.610882,46.767517 0 1 1 103.22177,0 z"
       transform="matrix(1.335385,0,0,0.76524803,-134.82132,7.5834844)" />
    <path
       sodipodi:type="arc"
       style="opacity:0.66666667;fill:url(#radialGradient3715);fill-opacity:1;fill-rule:nonzero;stroke:none;filter:url(#filter3671-7)"
       id="path2843-0"
       sodipodi:cx="385.03625"
       sodipodi:cy="178.651"
       sodipodi:rx="51.610882"
       sodipodi:ry="46.767517"
       d="m 436.64714,178.651 a 51.610882,46.767517 0 1 1 -103.22177,0 51.610882,46.767517 0 1 1 103.22177,0 z"
       transform="matrix(1.335385,0,0,2.4680496,-139.15116,64.412262)" />
  </g>
</svg>
